<svg width="1179" height="974" viewBox="0 0 1179 974" fill="none" xmlns="http://www.w3.org/2000/svg">
<rect width="1179" height="974" fill="white"/>
<path d="M347.673 524.968C334.588 486.974 354.69 445.522 392.561 432.394C430.432 419.266 471.751 439.432 484.836 477.426L487.82 486.039L536.766 374.163C552.887 337.349 595.698 320.6 632.393 336.772C649.861 344.472 662.789 358.244 669.807 374.522L718.162 486.66L785.971 294.628C799.26 256.693 840.687 236.762 878.487 250.094C916.287 263.425 936.165 304.986 922.876 342.908L793.692 708.739C787.368 727.652 773.385 743.91 753.692 752.45C716.91 768.425 674.19 751.445 658.268 714.544L602.711 585.683L546.461 714.243L546.449 714.231C538.599 732.15 523.623 746.873 503.712 753.768C465.841 766.896 424.522 746.73 411.437 708.736L347.648 524.955L347.673 524.968Z" fill="#FFCB00"/>
<path fill-rule="evenodd" clip-rule="evenodd" d="M367.51 215.283C356.472 227.182 344.561 229.263 332.608 242.427C325.173 236.878 317.774 222.605 310.316 225.542C308.426 241.629 299.992 250.28 298.097 267.932C288.813 267.783 274.395 260.587 270.096 267.323C278.057 281.448 276.353 293.385 285.221 308.768C277.62 314.091 261.715 316.695 262.217 324.661C276.999 331.424 282.661 342.076 298.926 349.339C295.92 358.092 284.584 369.518 289.696 375.658C305.653 372.483 316.508 377.793 333.951 374.137C336.685 382.98 334.258 398.854 342.015 400.838C353.053 388.939 364.964 386.858 376.917 373.694C384.352 379.243 391.751 393.516 399.209 390.579C401.099 374.492 409.533 365.841 411.428 348.188C420.712 348.338 435.13 355.534 439.429 348.798C431.468 334.673 433.172 322.736 424.304 307.353C431.905 302.03 447.81 299.426 447.308 291.46C432.526 284.697 426.864 274.045 410.599 266.782C413.605 258.029 424.941 246.603 419.829 240.463C403.872 243.638 393.018 238.328 375.575 241.984C372.84 233.141 375.267 217.267 367.51 215.283Z" fill="#FFCB00"/>
</svg>
