<svg width="102" height="100" viewBox="0 0 102 100" fill="none" xmlns="http://www.w3.org/2000/svg">
<path d="M1 57.0667C12.7158 54.696 13.484 48.1886 9.04259 38.3428C6.64181 33.0208 2.08035 23.8282 15.8848 27.9407C20.3022 29.2712 21.0465 25.6667 22.0788 22.5944C23.9754 16.9579 25.9921 11.3456 28.3929 4.52373C41.549 21.6268 49.4716 3.87057 60.7792 0C60.2991 13.934 68.7258 15.192 79.1692 13.9824C84.859 13.3293 90.3088 13.4744 85.6993 22.0139C80.1775 32.2225 91.5092 32.3193 95.3984 36.1414C100.44 41.1006 105.098 43.5681 95.0863 47.8499C87.1397 51.2609 94.126 56.7522 94.5822 61.1308C95.2304 67.493 102.841 76.1051 87.2118 73.9037C79.9134 72.8877 81.4739 82.0077 79.5053 86.5314C76.6964 92.9904 75.64 99.3527 67.6935 90.402C61.9796 83.9672 59.2187 92.8211 55.0414 94.2967C49.4476 96.2562 42.2452 107.868 41.1169 90.9342C40.8528 87.0394 37.0355 87.9829 34.3948 87.9587C28.4649 87.8861 22.535 87.9587 15.0445 87.9587C26.4722 69.4283 9.09061 67.0818 1 59.51V57.1151V57.0667Z" fill="#F2F8F7"/>
<path d="M32.213 56.5018C32.0156 56.5056 31.8257 56.5861 31.6858 56.726L28.8576 59.5535C28.6716 59.7394 28.595 60.0058 28.6506 60.2608C28.7081 60.5158 28.8902 60.7247 29.1376 60.8148L39.1577 64.4665L42.8237 74.4973C42.9138 74.7427 43.1228 74.9267 43.3778 74.9823C43.4334 74.9938 43.489 74.9995 43.5427 74.9995C43.744 74.9995 43.9396 74.919 44.0853 74.7753L46.9135 71.9478C47.0534 71.8079 47.134 71.6181 47.1378 71.4207L47.3219 61.5563C49.1894 59.9537 51.2371 58.1691 53.6877 56.0086L60.9027 73.184C61.0024 73.4198 61.2114 73.5904 61.4626 73.6402C61.7157 73.6881 61.9726 73.6095 62.1528 73.4294L65.7728 69.8103C65.9396 69.6435 66.0201 69.4096 65.9914 69.1757L63.3301 47.39C67.9354 43.2188 71.2278 40.1632 71.7648 39.6267C72.8002 38.5916 73.3697 37.2153 73.3697 35.7469C73.3697 34.2805 72.8002 32.9023 71.7648 31.8671C70.7295 30.832 69.3528 30.2627 67.8841 30.2627C66.4154 30.2627 65.0388 30.832 64.0034 31.8671C63.4914 32.3789 60.4371 35.6664 56.2264 40.2998L34.4472 37.6392C34.2133 37.6124 33.9794 37.691 33.8126 37.8577L30.1926 41.4768C30.0124 41.657 29.9338 41.9158 29.9817 42.1669C30.0315 42.418 30.2022 42.627 30.438 42.7267L47.6061 49.9399C45.4395 52.3993 43.6564 54.4427 42.0628 56.2981L32.2116 56.5013L32.213 56.5018ZM43.0038 57.558C44.8177 55.4417 46.8711 53.0895 49.4613 50.155C49.6243 49.969 49.6894 49.7179 49.6338 49.4764C49.5782 49.2348 49.4114 49.0355 49.1833 48.9396L32.0864 41.7571L34.6345 39.2095L56.437 41.872C56.6843 41.9046 56.9355 41.805 57.1042 41.6209C61.4433 36.8441 64.5798 33.4647 65.0919 32.9547C66.6334 31.4135 69.1413 31.4135 70.683 32.9547C71.4269 33.6985 71.8372 34.6914 71.8372 35.7496C71.8372 36.8077 71.4269 37.8006 70.683 38.5444C70.1346 39.0926 66.5722 42.3897 61.982 46.549C61.8152 46.7157 61.7346 46.9496 61.7634 47.1835L64.4266 68.9917L61.8784 71.5393L54.692 54.433C54.5962 54.2049 54.3968 54.0381 54.1552 53.9825C53.9136 53.925 53.6605 53.9921 53.4764 54.155C50.5505 56.739 48.1958 58.792 46.0655 60.6187C45.8987 60.7606 45.8009 60.9676 45.7971 61.1861L45.6111 71.0849L43.851 72.8446L40.4764 63.6091C40.3997 63.3963 40.231 63.2296 40.0201 63.151L30.7955 59.7887L32.5556 58.029L42.4416 57.8258C42.6602 57.822 42.8654 57.7242 43.0092 57.5575L43.0038 57.558Z" fill="#2D3B42"/>
</svg>
