<svg width="60" height="57" viewBox="0 0 60 57" fill="none" xmlns="http://www.w3.org/2000/svg">
<path d="M2.67421 26.0256C2.64175 25.6517 2.68736 25.275 2.80817 24.9197C2.92898 24.5643 3.12233 24.2379 3.37597 23.9612C3.62962 23.6845 3.938 23.4636 4.28156 23.3124C4.62512 23.1612 4.99636 23.0831 5.37171 23.083H10.5433C11.2616 23.083 11.9504 23.3683 12.4584 23.8763C12.9663 24.3842 13.2516 25.073 13.2516 25.7913V51.5205C13.2516 52.2388 12.9663 52.9277 12.4584 53.4356C11.9504 53.9435 11.2616 54.2288 10.5433 54.2288H7.61015C6.9323 54.229 6.27902 53.975 5.77935 53.5169C5.27967 53.0589 4.96993 52.4301 4.9113 51.7548L2.67421 26.0256ZM21.3766 24.945C21.3766 23.8129 22.0808 22.8 23.1032 22.3179C25.3362 21.2644 29.14 19.1478 30.8558 16.2864C33.0671 12.5977 33.4842 5.93383 33.5519 4.40769C33.5614 4.19373 33.556 3.97977 33.5844 3.76852C33.9514 1.12383 39.0553 4.21269 41.012 7.47894C42.075 9.25019 42.2105 11.578 42.0994 13.3966C41.9789 15.3412 41.4088 17.2195 40.8495 19.0855L39.6579 23.0627H54.36C54.7785 23.0627 55.1913 23.1596 55.5659 23.3459C55.9406 23.5322 56.2671 23.8028 56.5196 24.1364C56.7722 24.47 56.944 24.8576 57.0216 25.2688C57.0992 25.68 57.0804 26.1036 56.9668 26.5063L49.6949 52.2572C49.5344 52.8251 49.1928 53.325 48.722 53.681C48.2512 54.0369 47.677 54.2292 47.0868 54.2288H24.0849C23.3666 54.2288 22.6778 53.9435 22.1699 53.4356C21.662 52.9277 21.3766 52.2388 21.3766 51.5205V24.945Z" stroke="#333333" stroke-width="4" stroke-linecap="round" stroke-linejoin="round"/>
</svg>
