<svg width="80" height="72" viewBox="0 0 80 72" fill="none" xmlns="http://www.w3.org/2000/svg">
<path d="M38.8346 67.1064C39.3464 67.1064 39.8712 66.9915 40.4091 66.7617C40.947 66.5319 41.3818 66.2512 41.7134 65.9196L72.2477 35.3814C73.2321 34.397 73.9919 33.3917 74.5272 32.3655C75.0599 31.3341 75.3262 30.2035 75.3262 28.9737C75.3262 27.7282 75.0599 26.5193 74.5272 25.3469C73.9919 24.1719 73.2321 23.1013 72.2477 22.1352L57.5602 7.4477C56.5915 6.46331 55.5953 5.74134 54.5718 5.28178C53.5508 4.82223 52.4176 4.59245 51.1721 4.59245C49.9423 4.59245 48.7999 4.82223 47.745 5.28178C46.6902 5.74134 45.6966 6.462 44.7645 7.44378L41.3491 10.8591L48.595 18.1245C49.3731 18.8896 49.954 19.7591 50.3379 20.733C50.7191 21.707 50.9097 22.6953 50.9097 23.6979C50.9097 25.7372 50.2426 27.424 48.9083 28.7583C47.574 30.0926 45.8885 30.7584 43.8519 30.7558C42.8466 30.7558 41.8661 30.603 40.9105 30.2975C39.9548 29.992 39.0944 29.4568 38.3294 28.6917L30.8368 21.2265L13.9246 38.1348C13.5304 38.5317 13.234 38.9821 13.0355 39.486C12.8371 39.99 12.7379 40.4991 12.7379 41.0135C12.7379 41.9379 13.0342 42.699 13.627 43.2969C14.2171 43.8975 14.9743 44.1978 15.8986 44.1978C16.4104 44.1978 16.9352 44.0829 17.4731 43.8531C18.011 43.6207 18.4458 43.3387 18.7774 43.0071L31.1893 30.5952L33.9623 33.3682L21.57 45.784C21.1731 46.1783 20.8754 46.6274 20.677 47.1314C20.4811 47.6379 20.3832 48.1471 20.3832 48.6589C20.3832 49.5336 20.6913 50.2791 21.3075 50.8953C21.9238 51.5115 22.6692 51.8209 23.544 51.8235C24.0557 51.8235 24.5806 51.7073 25.1185 51.4749C25.6563 51.2426 26.0911 50.9619 26.4227 50.6329L39.7394 37.3397L42.5124 40.1088L29.2153 53.4254C28.868 53.7571 28.5834 54.1918 28.3615 54.7297C28.1369 55.2676 28.0246 55.7924 28.0246 56.3042C28.0246 57.1763 28.334 57.9205 28.9529 58.5367C29.5691 59.1581 30.3146 59.4689 31.1893 59.4689C31.7011 59.4689 32.2102 59.3696 32.7168 59.1712C33.2234 58.9728 33.6725 58.6751 34.0641 58.2782L47.3808 44.9811L50.1538 47.7541L36.8371 61.0708C36.4428 61.4677 36.1465 61.9442 35.948 62.5004C35.7496 63.0565 35.6504 63.5644 35.6504 64.0239C35.6504 64.9483 35.9755 65.6937 36.6256 66.2604C37.2758 66.827 38.0121 67.1103 38.8346 67.1103M38.8111 71.027C36.798 71.027 35.0746 70.2906 33.6411 68.8179C32.2076 67.3427 31.5784 65.5227 31.7533 63.3581C29.5339 63.3842 27.6865 62.7223 26.2112 61.3724C24.7359 60.0198 24.0349 58.1346 24.108 55.7167C21.6901 55.7428 19.784 55.0509 18.3896 53.6409C16.9953 52.2309 16.3608 50.3744 16.4861 48.0714C14.3085 48.0975 12.4859 47.4839 11.0185 46.2305C9.55363 44.9824 8.82121 43.2434 8.82121 41.0135C8.82121 40.0083 9.01574 39.003 9.4048 37.9977C9.79385 36.9898 10.3683 36.1046 11.1281 35.3422L30.8368 15.657L40.9496 25.7699C41.2812 26.1171 41.6912 26.4031 42.1795 26.6276C42.6677 26.8522 43.2174 26.9631 43.8284 26.9605C44.6665 26.9605 45.4068 26.6681 46.0491 26.0832C46.6915 25.4983 47.0139 24.7359 47.0165 23.7959C47.0165 23.1849 46.9043 22.6365 46.6797 22.1509C46.4552 21.6626 46.1705 21.2526 45.8259 20.921L32.3525 7.4477C31.3812 6.46331 30.372 5.74134 29.325 5.28178C28.2779 4.82223 27.1316 4.59245 25.8861 4.59245C24.6563 4.59245 23.5387 4.82223 22.5335 5.28178C21.5308 5.74134 20.5373 6.46331 19.5529 7.4477L7.63054 19.3935C6.78977 20.2291 6.11088 21.2278 5.59388 22.3898C5.07688 23.5491 4.80271 24.7463 4.77138 25.9814C4.74527 26.8665 4.82099 27.7164 4.99855 28.5311C5.1761 29.3458 5.46332 30.1134 5.86021 30.8341L2.89138 33.8029C2.23338 32.7533 1.71899 31.5443 1.34821 30.1761C0.977434 28.8079 0.806407 27.4109 0.835129 25.9853C0.866462 24.2045 1.22288 22.5008 1.90438 20.874C2.58588 19.2473 3.56243 17.7968 4.83404 16.5226L16.682 4.6747C18.0476 3.32214 19.4928 2.31687 21.0177 1.65887C22.5426 1.00348 24.1915 0.675781 25.9645 0.675781C27.7374 0.675781 29.372 1.00478 30.8681 1.66278C32.3669 2.31817 33.7926 3.32214 35.1451 4.6747L38.5526 8.08612L41.968 4.6747C43.3336 3.32214 44.7658 2.31687 46.2645 1.65887C47.7633 1.00348 49.3992 0.675781 51.1721 0.675781C52.9451 0.675781 54.594 1.00478 56.1189 1.66278C57.6412 2.31817 59.0773 3.32214 60.4272 4.6747L75.0207 19.2643C76.3707 20.6142 77.4125 22.13 78.1462 23.8115C78.8799 25.4931 79.2455 27.2203 79.2429 28.9933C79.2429 30.7688 78.8773 32.4047 78.1462 33.9009C77.4151 35.397 76.3733 36.8227 75.0207 38.1779L44.4825 68.6887C43.6704 69.5034 42.7852 70.0961 41.827 70.4669C40.8713 70.8376 39.866 71.023 38.8111 71.023" fill="#333333"/>
</svg>
