<svg width="64" height="61" viewBox="0 0 64 61" fill="none" xmlns="http://www.w3.org/2000/svg">
<path fill-rule="evenodd" clip-rule="evenodd" d="M8.63234 2.63974C12.5876 -1.29276 19.1006 -0.594012 22.4123 3.83249L26.5138 9.30549C29.2113 12.9065 28.9708 17.9375 25.7696 21.1192L24.9961 21.8927C24.9084 22.2174 24.8995 22.5584 24.9701 22.8872C25.1748 24.2132 26.2831 27.0212 30.9241 31.6362C35.5651 36.2512 38.3926 37.3562 39.7381 37.5642C40.0771 37.6324 40.4272 37.6224 40.7618 37.535L42.0878 36.2155C44.9348 33.388 49.3028 32.8582 52.8258 34.7725L59.0333 38.1525C64.3536 41.0385 65.6958 48.2665 61.3408 52.5987L56.7226 57.1877C55.2666 58.634 53.3101 59.8397 50.9246 60.064C45.0421 60.6132 31.3368 59.9112 16.9296 45.5885C3.48434 32.218 0.903838 20.557 0.575588 14.811C0.413088 11.9055 1.78459 9.44849 3.53309 7.71299L8.63234 2.63974ZM18.5123 6.75424C16.8646 4.55399 13.7966 4.37849 12.0676 6.09774L6.96509 11.1677C5.89259 12.2337 5.37909 13.4102 5.44409 14.5347C5.70409 19.101 7.78409 29.6212 20.3681 42.1337C33.5696 55.2572 45.7603 55.6505 50.4728 55.2085C51.4348 55.1207 52.3903 54.6202 53.2841 53.733L57.8991 49.1407C59.7776 47.2752 59.3648 43.8757 56.7063 42.4327L50.4988 39.056C48.7828 38.1265 46.7743 38.432 45.5263 39.6735L44.0476 41.1457L42.3251 39.4167C44.0476 41.1457 44.0443 41.149 44.0411 41.149L44.0378 41.1555L44.0281 41.1652L44.0053 41.1847L43.9566 41.2302C43.8194 41.3576 43.6716 41.4728 43.5146 41.5747C43.2546 41.747 42.9101 41.9387 42.4778 42.098C41.6003 42.4262 40.4368 42.6017 39.0003 42.3807C36.1826 41.9485 32.4483 40.0277 27.4856 35.0942C22.5261 30.1607 20.5891 26.4492 20.1536 23.6347C19.9293 22.1982 20.1081 21.0347 20.4396 20.1572C20.622 19.6635 20.8832 19.2025 21.2131 18.7922L21.3171 18.6785L21.3626 18.6297L21.3821 18.6102L21.3918 18.6005L21.3983 18.594L22.3343 17.6645C23.7253 16.2767 23.9203 13.979 22.6106 12.2272L18.5123 6.75424Z" fill="#333333"/>
</svg>
