<svg width="62" height="71" viewBox="0 0 62 71" fill="none" xmlns="http://www.w3.org/2000/svg">
<path d="M37.082 70.7692L36.8452 61.5H30.957C22.4446 61.5 15.2131 58.5246 9.26228 52.5738C3.3115 46.6231 0.334755 39.3901 0.332033 30.875C0.329311 22.3599 3.30606 15.1283 9.26228 9.18025C15.2185 3.23219 22.4501 0.255444 30.957 0.25C35.2146 0.25 39.1999 1.04761 42.913 2.64283C46.6261 4.23533 49.8697 6.41856 52.6436 9.1925C55.4176 11.9664 57.6008 15.2086 59.1933 18.919C60.7858 22.6348 61.582 26.6202 61.582 30.875C61.582 35.0373 60.9709 39.0349 59.7486 42.8677C58.5263 46.7006 56.8358 50.3226 54.6771 53.7335C52.5184 57.1444 49.9323 60.2886 46.9188 63.166C43.9053 66.0434 40.6264 68.5764 37.082 70.7651M41.1654 62.9292C45.9973 58.8458 49.9282 54.0656 52.958 48.5885C55.9879 43.1114 57.5014 37.2069 57.4987 30.875C57.4987 23.4569 54.9289 17.1795 49.7894 12.0427C44.6498 6.90583 38.3724 4.33606 30.957 4.33333C23.5417 4.33061 17.2643 6.90039 12.1247 12.0427C6.98514 17.1849 4.41537 23.4624 4.41537 30.875C4.41537 38.2876 6.98514 44.5664 12.1247 49.7114C17.2643 54.8564 23.5417 57.4248 30.957 57.4167H41.1654V62.9292ZM31.0918 51.5816C31.9357 51.5816 32.6475 51.2917 33.2274 50.7118C33.8072 50.132 34.0971 49.4201 34.0971 48.5762C34.0971 47.7324 33.8072 47.0205 33.2274 46.4407C32.6475 45.8608 31.9357 45.5695 31.0918 45.5668C30.2479 45.5668 29.536 45.8581 28.9562 46.4407C28.3736 47.0205 28.0824 47.7324 28.0824 48.5762C28.0824 49.4201 28.3723 50.132 28.9521 50.7118C29.5347 51.2917 30.2479 51.5816 31.0918 51.5816ZM29.3074 39.6378H32.9211C33.0246 37.9637 33.3458 36.6393 33.8848 35.6647C34.4238 34.6929 35.7032 33.1957 37.7231 31.1731C38.8991 30.0025 39.8301 28.8061 40.5161 27.5838C41.1994 26.3643 41.541 24.9651 41.541 23.3862C41.541 20.438 40.5243 18.1227 38.4908 16.4404C36.4573 14.7581 33.9978 13.9156 31.1122 13.9128C28.5887 13.9128 26.4518 14.6029 24.7014 15.9831C22.9455 17.3632 21.6593 19.0088 20.8426 20.9198L24.2032 22.2224C24.7531 21.0137 25.5561 19.9126 26.6124 18.919C27.6713 17.9281 29.1713 17.4327 31.1122 17.4327C33.4206 17.4327 35.1261 18.0601 36.2286 19.3151C37.3311 20.5727 37.8824 21.9447 37.8824 23.4311C37.8824 24.7976 37.5285 25.9532 36.8207 26.8978C36.1156 27.8424 35.2078 28.8701 34.0971 29.9807C32.1344 31.7094 30.8454 33.261 30.2302 34.6357C29.615 36.0105 29.3074 37.6778 29.3074 39.6378Z" fill="#333333"/>
</svg>
