<svg width="64" height="67" viewBox="0 0 64 67" fill="none" xmlns="http://www.w3.org/2000/svg">
<path d="M55.6842 36.65V27.2C55.6842 16.805 55.6842 11.6075 52.4474 8.37875C49.2105 5.15 44 5.15 33.5789 5.15H24.1053C13.6842 5.15 8.47368 5.15 5.23684 8.37875C2 11.6075 2 16.805 2 27.2V42.95C2 53.345 2 58.5425 5.23684 61.7713C8.47368 65 13.6842 65 24.1053 65H28.8421M44.6316 2V8.3M28.8421 2V8.3M13.0526 2V8.3M36.7368 58.7C36.7368 58.7 39.8947 58.7 43.0526 65C43.0526 65 53.0853 49.25 62 46.1M16.2105 42.95H28.8421M16.2105 27.2H41.4737" stroke="#333333" stroke-width="4" stroke-linecap="round" stroke-linejoin="round"/>
</svg>
