<svg width="63" height="50" viewBox="0 0 63 50" fill="none" xmlns="http://www.w3.org/2000/svg">
<path d="M7.8305 28.2868C6.59227 24.7415 8.46929 20.8648 12.022 19.6291C15.5746 18.3935 19.4594 20.2666 20.6976 23.8119L20.98 24.6156L25.5476 14.1542C27.052 10.7117 31.0675 9.13654 34.5172 10.6378C36.1593 11.3526 37.3767 12.6356 38.0398 14.1542L42.6085 24.6156L48.9269 6.66294C50.1651 3.11652 54.0499 1.24457 57.6026 2.48022C61.1553 3.71586 63.0323 7.59256 61.7941 11.1378L49.7566 45.3387C49.1676 47.1067 47.8588 48.6287 46.0119 49.4313C42.5622 50.9326 38.5466 49.3574 37.0422 45.9149L31.7931 33.8934L26.5439 45.9149L26.5428 45.9138C25.8103 47.5894 24.4077 48.9682 22.5399 49.6173C18.9873 50.8529 15.1025 48.9798 13.8643 45.4345L7.82819 28.2856L7.8305 28.2868Z" fill="#FFCB00"/>
<path fill-rule="evenodd" clip-rule="evenodd" d="M9.86015 0C8.82668 1.11418 7.70885 1.31148 6.58985 2.54405C5.89032 2.02758 5.19197 0.696363 4.49244 0.972587C4.31903 2.47557 3.52928 3.28567 3.35586 4.9349C2.48409 4.92329 1.1284 4.25478 0.726491 4.88499C1.47757 6.20228 1.32056 7.31762 2.15718 8.75213C1.44476 9.25119 -0.0480252 9.4984 0.00118758 10.2423C1.39086 10.8702 1.92517 11.8637 3.45429 12.538C3.17424 13.3562 2.11265 14.4263 2.59423 14.9985C4.09171 14.6979 5.11229 15.1912 6.7492 14.8453C7.00815 15.6705 6.78435 17.1538 7.51317 17.3371C8.54664 16.2229 9.66447 16.0256 10.7835 14.7931C11.483 15.3095 12.1814 16.6408 12.8809 16.3645C13.0543 14.8616 13.844 14.0515 14.0175 12.4022C14.8892 12.4138 16.2449 13.0823 16.6468 12.4521C15.8958 11.1348 16.0528 10.0195 15.2161 8.585C15.9286 8.08594 17.4214 7.83873 17.3721 7.09478C15.9825 6.46689 15.4482 5.47342 13.919 4.7991C14.1991 3.98088 15.2607 2.9108 14.7791 2.33862C13.2816 2.63922 12.261 2.14596 10.6241 2.49182C10.3652 1.66663 10.589 0.183376 9.86015 0Z" fill="#FFCB00"/>
</svg>
