<svg width="102" height="100" viewBox="0 0 102 100" fill="none" xmlns="http://www.w3.org/2000/svg">
<g clip-path="url(#clip0_586_282)">
<path d="M1 57.0667C12.7158 54.696 13.484 48.1886 9.04259 38.3428C6.64181 33.0208 2.08035 23.8282 15.8848 27.9407C20.3022 29.2712 21.0465 25.6667 22.0788 22.5944C23.9754 16.9579 25.9921 11.3456 28.3929 4.52373C41.549 21.6268 49.4716 3.87057 60.7792 0C60.2991 13.934 68.7258 15.192 79.1692 13.9824C84.859 13.3293 90.3088 13.4744 85.6993 22.0139C80.1775 32.2225 91.5091 32.3193 95.3984 36.1414C100.44 41.1006 105.098 43.5681 95.0863 47.8499C87.1397 51.2609 94.126 56.7522 94.5821 61.1308C95.2304 67.4931 102.841 76.1051 87.2118 73.9037C79.9134 72.8877 81.4739 82.0077 79.5053 86.5314C76.6964 92.9904 75.64 99.3527 67.6935 90.402C61.9796 83.9672 59.2187 92.8211 55.0414 94.2967C49.4476 96.2562 42.2452 107.868 41.1169 90.9342C40.8528 87.0394 37.0355 87.9829 34.3948 87.9587C28.4649 87.8861 22.535 87.9587 15.0445 87.9587C26.4722 69.4283 9.0906 67.0818 1 59.51V57.1151V57.0667Z" fill="#F2F8F7"/>
<g clip-path="url(#clip1_586_282)">
<path d="M40.504 41.8617C40.8296 42.1385 41.3096 42.117 41.6102 41.8122C41.9105 41.5072 41.9317 41.0201 41.6589 40.6896C41.2606 40.2828 41.0369 39.7326 41.0369 39.159C41.0369 38.5857 41.2606 38.0354 41.6589 37.6286C42.3661 36.9109 42.7633 35.9374 42.7633 34.9224C42.7633 33.9074 42.3662 32.9339 41.6589 32.2162C41.5064 32.0595 41.2985 31.9717 41.0814 31.9717C40.8644 31.9717 40.6564 32.0595 40.5039 32.2162C40.3493 32.3723 40.2623 32.5846 40.2623 32.8058C40.2623 33.0272 40.3493 33.2394 40.5039 33.3956C40.9002 33.8019 41.1223 34.3507 41.1223 34.9224C41.1223 35.494 40.9001 36.0426 40.5039 36.4492C39.7986 37.1679 39.4023 38.1409 39.4023 39.1554C39.4023 40.1699 39.7986 41.143 40.504 41.8617Z" fill="#2D3B42"/>
<path d="M58.5079 41.8617C58.8335 42.1385 59.3136 42.117 59.6142 41.8122C59.9145 41.5072 59.9356 41.0201 59.6628 40.6896C59.2645 40.2828 59.0408 39.7326 59.0408 39.159C59.0408 38.5857 59.2645 38.0354 59.6628 37.6286C60.3701 36.9109 60.7673 35.9374 60.7673 34.9224C60.7673 33.9074 60.3701 32.9339 59.6628 32.2162C59.5103 32.0595 59.3025 31.9717 59.0854 31.9717C58.8684 31.9717 58.6604 32.0595 58.5079 32.2162C58.3534 32.3723 58.2663 32.5846 58.2663 32.8058C58.2663 33.0272 58.3534 33.2394 58.5079 33.3956C58.9042 33.8019 59.1263 34.3507 59.1263 34.9224C59.1263 35.494 58.9041 36.0426 58.5079 36.4492C57.8026 37.1679 57.4062 38.1409 57.4062 39.1554C57.4062 40.1699 57.8025 41.143 58.5079 41.8617Z" fill="#2D3B42"/>
<path d="M49.4991 36.8834C49.6499 37.0504 49.8614 37.1479 50.0844 37.1531C50.3077 37.1585 50.5234 37.0711 50.6817 36.9114C50.84 36.7517 50.9275 36.5333 50.9235 36.307C50.9198 36.0804 50.8251 35.8651 50.6615 35.7111C50.263 35.3045 50.0394 34.7543 50.0394 34.1807C50.0394 33.6071 50.2629 33.0571 50.6615 32.6503C51.3681 31.9338 51.7652 30.9614 51.7652 29.9476C51.7652 28.9339 51.368 27.9615 50.6615 27.245C50.5076 27.0881 50.2985 27 50.0803 27C49.8621 27 49.653 27.0881 49.4991 27.245C49.345 27.4 49.2581 27.611 49.2581 27.831C49.2581 28.0513 49.345 28.2623 49.4991 28.4173C49.9034 28.8189 50.1297 29.3699 50.1267 29.9441C50.126 30.5196 49.9004 31.0712 49.4991 31.478C48.7942 32.1955 48.3984 33.1674 48.3984 34.1807C48.3984 35.1941 48.7942 36.1659 49.4991 36.8834Z" fill="#2D3B42"/>
<path d="M46.2272 48.3447C46.2864 48.3518 46.3463 48.3518 46.4055 48.3447C47.5946 48.0752 48.8092 47.9393 50.0278 47.9396C50.4806 47.9396 50.8476 47.5669 50.8476 47.1074C50.8476 46.6478 50.4806 46.2754 50.0278 46.2754C48.6915 46.2752 47.3595 46.4254 46.0559 46.7239C45.6516 46.8195 45.3814 47.2068 45.4269 47.6256C45.4724 48.0444 45.8191 48.3626 46.2342 48.3666L46.2272 48.3447Z" fill="#2D3B42"/>
<path d="M33.5226 62.0215C33.5722 62.0288 33.6226 62.0288 33.6723 62.0215C34.0655 62.0208 34.4018 61.7344 34.4708 61.3415C34.8746 59.0355 35.7532 56.8418 37.0495 54.9044C38.3458 52.9668 40.0305 51.3285 41.9934 50.0968C42.3808 49.8591 42.5078 49.3496 42.2787 48.9534C42.0473 48.5613 41.5473 48.4322 41.1592 48.664C38.9927 50.0188 37.1337 51.8238 35.7044 53.9603C34.275 56.0967 33.3078 58.5163 32.8663 61.0595C32.825 61.2755 32.8712 61.4997 32.9947 61.6809C33.1182 61.862 33.3085 61.9848 33.5226 62.0215Z" fill="#2D3B42"/>
<path d="M71.0066 60.8929C70.2716 56.5717 68.261 52.5786 65.2408 49.443C62.2206 46.3069 58.3332 44.1756 54.0929 43.3309C54.0999 43.1983 54.0999 43.0655 54.0929 42.9328C54.0929 41.4489 53.3128 40.0777 52.0464 39.3358C50.7803 38.5938 49.2201 38.5938 47.9536 39.3358C46.6873 40.0778 45.9071 41.4489 45.9071 42.9328C45.9002 43.0655 45.9002 43.1983 45.9071 43.3309C41.6802 44.1888 37.8087 46.3259 34.8021 49.4611C31.7955 52.596 29.7954 56.582 29.0652 60.8929C27.3539 61.877 25.5 63.3242 25.5 64.945C25.5 69.1637 38.1922 72.0002 50.0501 72.0002C61.908 72.0002 74.6002 69.1637 74.6002 64.945C74.5858 63.3242 72.7179 61.877 71.0066 60.8929ZM50.036 40.4437C50.6866 40.4437 51.3105 40.7061 51.7706 41.1728C52.2306 41.6396 52.489 42.2728 52.489 42.933V43.0776H52.3748C52.0895 43.0776 51.8042 43.0197 51.5192 42.998H51.2054H50.036H48.8666H48.5528C48.2675 42.998 47.9823 43.0414 47.7042 43.0776H47.5831V42.933C47.5831 42.2728 47.8416 41.6396 48.3017 41.1728C48.7617 40.7061 49.3856 40.4437 50.036 40.4437ZM30.4701 62.767V62.4921C30.4701 62.2243 30.5272 61.9567 30.5699 61.6962C31.1797 57.4611 33.1145 53.537 36.0893 50.5026C39.064 47.4681 42.9208 45.4842 47.091 44.8435C47.5259 44.7785 47.9681 44.7276 48.41 44.6916H48.6881C49.5856 44.6337 50.486 44.6337 51.3833 44.6916H51.6614C52.1036 44.7279 52.5455 44.7785 52.9805 44.8435C57.145 45.491 60.9953 47.4777 63.964 50.5116C66.9329 53.5452 68.8641 57.4654 69.4734 61.6961C69.5161 61.9566 69.5446 62.2244 69.5732 62.492V62.7669C69.5732 63.136 69.6303 63.4905 69.6372 63.874C56.7198 66.8987 43.2941 66.8989 30.3773 63.8742C30.4107 63.5075 30.4415 63.1385 30.4701 62.767ZM50.036 70.3432C36.0461 70.3432 27.1188 66.7975 27.1188 64.9451C27.1188 64.6266 27.5111 63.9247 28.8088 63.0131C28.8122 63.0588 28.8122 63.1047 28.8088 63.1507C28.8088 63.6065 28.7661 64.0625 28.7661 64.5256V65.1842L29.3935 65.3361C36.1668 66.9793 43.1077 67.8075 50.0717 67.8035C57.0358 67.8075 63.9767 66.9791 70.75 65.3359L71.3774 65.184V64.5254C71.3774 64.0623 71.3774 63.6065 71.3275 63.1504V63.0129C72.6253 63.9247 73.0175 64.6266 73.0175 64.9448C72.9532 66.7975 64.0259 70.3432 50.036 70.3432Z" fill="#2D3B42"/>
</g>
</g>
<defs>
<clipPath id="clip0_586_282">
<rect width="101" height="100" fill="white" transform="translate(0.5)"/>
</clipPath>
<clipPath id="clip1_586_282">
<rect width="50" height="45" fill="white" transform="translate(25.5 27)"/>
</clipPath>
</defs>
</svg>
