<svg width="101" height="100" viewBox="0 0 101 100" fill="none" xmlns="http://www.w3.org/2000/svg">
<g clip-path="url(#clip0_586_315)">
<path d="M0.5 57.0667C12.2158 54.696 12.984 48.1886 8.54259 38.3428C6.14181 33.0208 1.58035 23.8282 15.3848 27.9407C19.8022 29.2712 20.5465 25.6667 21.5788 22.5944C23.4754 16.9579 25.4921 11.3456 27.8929 4.52373C41.049 21.6268 48.9716 3.87057 60.2792 0C59.7991 13.934 68.2258 15.192 78.6692 13.9824C84.359 13.3293 89.8088 13.4744 85.1993 22.0139C79.6775 32.2225 91.0092 32.3193 94.8984 36.1414C99.94 41.1006 104.598 43.5681 94.5863 47.8499C86.6397 51.2609 93.626 56.7522 94.0822 61.1308C94.7304 67.493 102.341 76.1051 86.7118 73.9037C79.4134 72.8877 80.9739 82.0077 79.0053 86.5314C76.1964 92.9904 75.14 99.3527 67.1935 90.402C61.4796 83.9672 58.7187 92.8211 54.5414 94.2967C48.9476 96.2562 41.7452 107.868 40.6169 90.9342C40.3528 87.0394 36.5355 87.9829 33.8948 87.9587C27.9649 87.8861 22.035 87.9587 14.5445 87.9587C25.9722 69.4283 8.59061 67.0818 0.5 59.51V57.1151V57.0667Z" fill="#F2F8F7"/>
<g clip-path="url(#clip1_586_315)">
<path d="M67.8815 64.5635H33.6738C32.8598 64.5581 32.0807 64.2321 31.5051 63.656C30.9294 63.08 30.6034 62.3002 30.5977 61.4854V42.268C30.6031 41.4532 30.9287 40.6733 31.5042 40.097C32.0796 39.5208 32.8585 39.1944 33.6725 39.1887H67.8815C68.6955 39.1941 69.4746 39.5201 70.0503 40.0961C70.6259 40.6722 70.9519 41.4519 70.9577 42.2667V61.488C70.9578 61.8919 70.8785 62.2919 70.7241 62.6651C70.5698 63.0384 70.3435 63.3775 70.0582 63.6631C69.7729 63.9487 69.4341 64.1752 69.0613 64.3297C68.6885 64.4842 68.2889 64.5636 67.8854 64.5635H67.8815ZM33.6738 41.2424H33.6648C33.3954 41.2424 33.1371 41.3495 32.9467 41.5402C32.7563 41.7308 32.6493 41.9894 32.6493 42.259V61.4984C32.6493 62.0602 33.1035 62.5149 33.6648 62.5149H67.8919C68.1612 62.5149 68.4195 62.4078 68.6099 62.2172C68.8004 62.0265 68.9073 61.768 68.9073 61.4984V42.259C68.9073 41.9894 68.8004 41.7308 68.6099 41.5402C68.4195 41.3495 68.1612 41.2424 67.8919 41.2424H67.8815H33.6738ZM59.8428 36.0267V36.0319C59.8428 36.3244 59.7267 36.605 59.5201 36.8118C59.3134 37.0187 59.0331 37.1349 58.7409 37.1349H42.817C42.5248 37.1349 42.2445 37.0187 42.0378 36.8118C41.8312 36.605 41.7151 36.3244 41.7151 36.0319V36.0215C41.7151 35.4119 42.2093 34.9184 42.817 34.9184H58.7357C59.0249 34.9316 59.2987 35.0525 59.5035 35.2572C59.7083 35.462 59.8293 35.7372 59.8428 36.0267ZM63.6983 36.8482V36.8663C63.6983 37.7859 62.9538 38.5312 62.0351 38.5312H62.0157H61.9989C61.5579 38.5309 61.1351 38.3554 60.8232 38.0432C60.5114 37.731 60.3361 37.3077 60.3357 36.8663V36.8469V35.2284C60.3357 34.3088 61.0802 33.5635 61.9989 33.5635H62.0183H62.0351C62.9538 33.5635 63.6983 34.3088 63.6983 35.2284V35.2478V35.2465V36.8482ZM41.2209 36.8482V36.8663C41.2209 37.7859 40.4764 38.5312 39.5577 38.5312H39.5383H39.5215C39.0805 38.5309 38.6577 38.3554 38.3458 38.0432C38.034 37.731 37.8586 37.3077 37.8583 36.8663V36.8469V35.2284C37.8583 34.3088 38.6028 33.5635 39.5215 33.5635H39.5409H39.5396H39.5577C40.4764 33.5635 41.2209 34.3088 41.2209 35.2284V35.2478V35.2465V36.8482ZM69.0725 36.0267V36.0319C69.0725 36.3244 68.9564 36.605 68.7497 36.8118C68.5431 37.0187 68.2628 37.1349 67.9706 37.1349H65.2131C64.9209 37.1349 64.6406 37.0187 64.434 36.8118C64.2273 36.605 64.1112 36.3244 64.1112 36.0319V36.0215C64.1112 35.4119 64.6054 34.9184 65.2131 34.9184H67.9654C68.2546 34.9316 68.5284 35.0525 68.7332 35.2572C68.9379 35.462 69.059 35.7372 69.0725 36.0267ZM37.4067 36.0267V36.0319C37.4067 36.3244 37.2906 36.605 37.0839 36.8118C36.8773 37.0187 36.597 37.1349 36.3048 37.1349H33.5873C33.2951 37.1349 33.0148 37.0187 32.8081 36.8118C32.6015 36.605 32.4854 36.3244 32.4854 36.0319V36.0215C32.4854 35.4119 32.9796 34.9184 33.5873 34.9184H36.3396C36.6247 34.9329 36.8936 35.0555 37.0916 35.2614C37.2896 35.4673 37.4031 35.7409 37.4067 36.0267Z" fill="#333333"/>
<path d="M37.9002 52.3678V54.9511H40.4022V52.3678H41.9196V59.1026H40.4022V56.2686H37.9002V59.1026H36.3828V52.3678H37.9002ZM49.4267 55.6551C49.4731 56.1063 49.4244 56.5622 49.2838 56.9933C49.1431 57.4245 48.9137 57.8213 48.6103 58.1582C48.3069 58.495 47.9362 58.7644 47.5223 58.9488C47.1084 59.1333 46.6604 59.2288 46.2073 59.2291L46.0977 59.2278H46.1028H46.0654C45.6262 59.228 45.1919 59.1358 44.7906 58.9573C44.3892 58.7787 44.0299 58.5177 43.7357 58.1913C43.4416 57.8648 43.2192 57.4801 43.0831 57.0621C42.9469 56.6441 42.9 56.2022 42.9454 55.7649L42.9441 55.7778C42.9062 55.3284 42.962 54.8759 43.1078 54.4492C43.2537 54.0224 43.4864 53.6306 43.7913 53.2986C44.0962 52.9665 44.4667 52.7014 44.8792 52.5201C45.2918 52.3387 45.7374 52.2451 46.188 52.2451H46.228H46.2254L46.3041 52.2438C46.7396 52.2438 47.1704 52.3347 47.5689 52.5107C47.9673 52.6867 48.3247 52.944 48.6182 53.2662C48.9117 53.5883 49.1349 53.9681 49.2734 54.3815C49.4119 54.7948 49.4628 55.2326 49.4228 55.6667L49.4241 55.6551H49.4267ZM44.5867 55.7365C44.5867 57.0514 45.206 57.9943 46.2267 57.9943C47.2473 57.9943 47.8267 57.0088 47.8267 55.6951C47.8267 54.4629 47.2525 53.4373 46.1867 53.4373C45.1622 53.4347 44.5867 54.4216 44.5867 55.7339V55.7365ZM51.477 53.6414H49.6731V52.3678H54.8422V53.6414H52.997V59.1026H51.4796L51.477 53.6414ZM59.6396 56.2273H57.1789V57.829H59.966V59.0612H55.6202V52.3678H59.7622V53.6001H57.1376V54.9963H59.5983V56.2286L59.6396 56.2273ZM60.9931 52.3678H62.5106V57.829H65.1764V59.1026H60.9931V52.3678ZM50.7802 48.0588L48.5647 49.2536L48.9777 46.7904L47.2112 45.0169L49.6718 44.6475L50.7789 42.4336L51.886 44.6514L54.3467 45.0208L52.5828 46.7865L52.9957 49.2497L50.7802 48.0588ZM58.4499 48.3443L56.7686 49.2471L57.0964 47.3587L55.7415 46.0451L57.5867 45.7997L58.4473 44.0753L59.268 45.7997L61.1544 46.0451L59.8009 47.36L60.0873 49.2484L58.4499 48.3443ZM63.3299 48.6736L62.2228 49.2484L62.4293 48.0162L61.5273 47.1546L62.7583 46.948L63.3325 45.8397L63.8667 46.948L65.0977 47.1546L64.237 48.0162L64.4435 49.2484L63.3299 48.6736ZM43.1506 48.3443L44.7906 49.2471L44.4628 47.3587L45.8164 46.0438L43.9712 45.7984L43.1518 44.0753L42.2912 45.7997L40.4447 46.0451L41.7983 47.36L41.4706 49.2484L43.1506 48.3443ZM38.2293 48.6736L39.3364 49.2484L39.1299 48.0162L40.0318 47.1546L38.8009 46.948L38.228 45.8397L37.6938 46.948L36.4628 47.1546L37.3647 48.0162L37.1583 49.2484L38.2293 48.6736Z" fill="#333333"/>
</g>
</g>
<defs>
<clipPath id="clip0_586_315">
<rect width="100" height="100" fill="white" transform="translate(0.5)"/>
</clipPath>
<clipPath id="clip1_586_315">
<rect width="40" height="31" fill="white" transform="translate(30.5977 33.5635)"/>
</clipPath>
</defs>
</svg>
