<svg width="48" height="73" viewBox="0 0 48 73" fill="none" xmlns="http://www.w3.org/2000/svg">
<g clip-path="url(#clip0_586_223)">
<path d="M48 3.61907C48 1.62327 46.3852 0 44.4 0H3.6C1.61472 0 0 1.62327 0 3.61907V54.286C0 56.2818 1.61472 57.9051 3.6 57.9051H28.8V71.175C28.8 71.6629 29.0926 72.1035 29.5404 72.2893C29.9887 72.4766 30.5042 72.3731 30.8482 72.0277L37.2 65.6428L43.5515 72.028C43.7813 72.259 44.0878 72.3814 44.4 72.3814C44.5547 72.3814 44.7105 72.3519 44.8594 72.2893C45.3074 72.1033 45.6 71.6629 45.6 71.175V55.0581C47.145 53.1279 48 50.7344 48 48.2542C48 47.9288 47.9794 47.6084 47.9513 47.2899C47.9682 47.209 48 47.1336 48 47.0476V3.61907ZM43.2 68.2604L38.0485 63.0816C37.814 62.8459 37.507 62.728 37.2 62.728C36.893 62.728 36.586 62.8459 36.3515 63.0814L31.2 68.2604V57.2798C31.2603 57.3202 31.3278 57.3481 31.3888 57.3873C31.7125 57.5954 32.0455 57.7854 32.3886 57.9573C32.4759 58.001 32.5598 58.0508 32.6482 58.0923C33.0727 58.2907 33.5098 58.4596 33.9569 58.6014C34.063 58.6348 34.1712 58.6592 34.2783 58.6894C34.6378 58.7912 35.002 58.8739 35.3717 58.9377C35.5038 58.9606 35.6347 58.984 35.7678 59.0021C36.2405 59.0657 36.7173 59.1091 37.2 59.1091C37.6827 59.1091 38.1595 59.0657 38.632 59.0021C38.7653 58.9842 38.896 58.9606 39.0279 58.9377C39.3978 58.8739 39.762 58.791 40.1215 58.6894C40.2286 58.6592 40.3367 58.6348 40.4427 58.6014C40.89 58.4598 41.3273 58.2909 41.7515 58.0923C41.84 58.0508 41.9237 58.001 42.0112 57.9573C42.3545 57.7854 42.6875 57.5954 43.011 57.3873C43.0722 57.3481 43.1397 57.3202 43.2 57.2798V68.2604ZM43.4987 53.8369C41.9093 55.6535 39.6135 56.696 37.2 56.696C34.7865 56.696 32.4907 55.6536 30.9013 53.8368C29.546 52.2878 28.8 50.3052 28.8 48.2515C28.8 43.5957 32.5682 39.807 37.2 39.807C41.8318 39.807 45.6 43.5957 45.6 48.2515C45.6 50.3052 44.854 52.2878 43.4987 53.8369ZM37.2 37.3944C31.245 37.3944 26.4 42.2646 26.4 48.2516C26.4 50.7315 27.255 53.1251 28.8 55.0555V55.49H3.6C2.9385 55.49 2.4 54.9492 2.4 54.2837V3.61674C2.4 2.95174 2.9385 2.41039 3.6 2.41039H44.4C45.0615 2.41039 45.6 2.95175 45.6 3.61674V41.443C43.6185 38.9774 40.591 37.3944 37.2 37.3944Z" fill="#FECA00"/>
<path d="M39.95 44.9892L35.9985 48.9615L34.447 47.4019C33.9782 46.9307 33.219 46.9307 32.75 47.4019C32.2812 47.8731 32.2812 48.6364 32.75 49.1079L35.15 51.5206C35.3845 51.7561 35.6915 51.8738 35.9985 51.8738C36.3055 51.8738 36.6126 51.7558 36.847 51.5204L41.647 46.695C42.1158 46.2237 42.1158 45.4604 41.647 44.989C41.1782 44.518 40.4188 44.518 39.95 44.9892Z" fill="#FECA00"/>
<path d="M39.5954 9.65137H8.39531C7.73259 9.65137 7.19531 10.1915 7.19531 10.8577C7.19531 11.524 7.73256 12.0641 8.39531 12.0641H39.5954C40.258 12.0641 40.7954 11.524 40.7954 10.8577C40.7954 10.1917 40.258 9.65137 39.5954 9.65137Z" fill="#FECA00"/>
<path d="M37.2016 19.3027H10.8016C10.1388 19.3027 9.60156 19.8428 9.60156 20.5091C9.60156 21.1752 10.1388 21.7154 10.8016 21.7154H37.2016C37.8642 21.7154 38.4016 21.1754 38.4016 20.5091C38.4016 19.8431 37.8644 19.3027 37.2016 19.3027Z" fill="#FECA00"/>
<path d="M34.8 28.9531H13.2C12.5372 28.9531 12 29.4932 12 30.1595C12 30.8258 12.5372 31.3658 13.2 31.3658H34.8C35.4628 31.3658 36 30.8258 36 30.1595C36 29.4934 35.4628 28.9531 34.8 28.9531Z" fill="#FECA00"/>
</g>
<defs>
<clipPath id="clip0_586_223">
<rect width="48" height="73" fill="white"/>
</clipPath>
</defs>
</svg>
