<svg width="63" height="81" viewBox="0 0 63 81" fill="none" xmlns="http://www.w3.org/2000/svg">
<path d="M14.5834 25.5919L6.5625 27.3106C8.7415 14.3959 15.07 10.1351 21.2674 10.1231C25.2738 10.1145 29.2241 11.8865 31.9619 13.5606C34.6997 11.8865 38.6459 10.1231 42.6564 10.1231C48.8204 10.1231 55.1823 14.3959 57.3613 27.3106L49.3404 25.5919C50.0877 29.2013 51.7306 35.5469 49.3404 41.0607C45.3567 36.4664 36.1461 29.5295 31.9619 25.5919C27.7777 29.5295 18.5671 36.4664 14.5834 41.0607C12.1931 35.5486 13.8361 29.2013 14.5834 25.5919Z" stroke="#FFCB00" stroke-width="3" stroke-linecap="round" stroke-linejoin="round"/>
<path d="M31.9619 25.5938C30.9526 32.278 29.5409 48.8537 31.9619 61.6876" stroke="#FFCB00" stroke-width="3" stroke-linecap="round" stroke-linejoin="round"/>
<path d="M15.9219 72H48.0053C41.606 64.1195 38.6476 61.6961 31.9636 61.6875C25.2795 61.6789 18.4511 67.5003 15.9219 72Z" stroke="#FFCB00" stroke-width="3" stroke-linecap="round" stroke-linejoin="round"/>
</svg>
