<svg width="60" height="71" viewBox="0 0 60 71" fill="none" xmlns="http://www.w3.org/2000/svg">
<g clip-path="url(#clip0_631_282)">
<path fill-rule="evenodd" clip-rule="evenodd" d="M39.5658 62.4933C41.399 59.1569 44.9972 56.8877 49.1343 56.8877H49.142C55.1379 56.8877 60 61.6465 60 67.521V69.6962C60 70.8906 58.7055 70.9892 58.7055 70.9892C58.6669 70.9892 1.21946 70.9866 1.21398 70.9866C0.538243 70.9464 0 70.3936 0 69.7218V67.521C0 61.6467 4.86206 56.8877 10.8575 56.8877H10.8657C15.0001 56.8877 18.5934 59.1493 20.4286 62.4808C22.2619 59.1494 25.8551 56.8877 29.9921 56.8877H29.9973C34.1369 56.8877 37.7355 59.1569 39.5658 62.4933ZM57.4115 68.4541V67.5209C57.4115 63.0485 53.7095 59.423 49.1425 59.423H49.1349C44.5682 59.423 40.8659 63.0485 40.8659 67.5209V68.4541H57.4115ZM19.135 68.4541V67.5209C19.135 63.0485 15.4326 59.423 10.866 59.423H10.8579C6.2914 59.423 2.58894 63.0485 2.58894 67.5209V68.4541H19.135ZM38.2666 68.4541H21.7232V67.5209C21.7232 63.0485 25.4256 59.423 29.9922 59.423H29.9974C34.5644 59.423 38.2664 63.0485 38.2664 67.5209L38.2666 68.4541Z" fill="#FECA00"/>
<path fill-rule="evenodd" clip-rule="evenodd" d="M10.862 39.9766C6.67399 39.9766 3.27344 43.3071 3.27344 47.4082C3.27344 51.509 6.67399 54.8397 10.862 54.8397C15.0496 54.8397 18.4501 51.5092 18.4501 47.4082C18.4501 43.3072 15.0496 39.9766 10.862 39.9766ZM10.862 42.5111C13.6209 42.5111 15.8618 44.7057 15.8618 47.4081C15.8618 50.1103 13.6209 52.3049 10.862 52.3049C8.1025 52.3049 5.86168 50.1103 5.86168 47.4081C5.86168 44.7057 8.1025 42.5111 10.862 42.5111Z" fill="#FECA00"/>
<path fill-rule="evenodd" clip-rule="evenodd" d="M49.135 39.9766C44.9474 39.9766 41.5469 43.3071 41.5469 47.4082C41.5469 51.509 44.9474 54.8397 49.135 54.8397C53.3229 54.8397 56.7235 51.5092 56.7235 47.4082C56.7235 43.3072 53.3229 39.9766 49.135 39.9766ZM49.135 42.5111C51.8944 42.5111 54.1352 44.7057 54.1352 47.4081C54.1352 50.1103 51.8944 52.3049 49.135 52.3049C46.3759 52.3049 44.1351 50.1103 44.1351 47.4081C44.1351 44.7057 46.3759 42.5111 49.135 42.5111Z" fill="#FECA00"/>
<path fill-rule="evenodd" clip-rule="evenodd" d="M29.9947 39.9766C25.8072 39.9766 22.4062 43.3071 22.4062 47.4082C22.4062 51.509 25.8071 54.8397 29.9947 54.8397C34.1822 54.8397 37.5833 51.5092 37.5833 47.4082C37.5833 43.3072 34.1824 39.9766 29.9947 39.9766ZM29.9947 42.5111C32.7542 42.5111 34.9951 44.7057 34.9951 47.4081C34.9951 50.1103 32.7542 52.3049 29.9947 52.3049C27.2352 52.3049 24.9945 50.1103 24.9945 47.4081C24.9945 44.7057 27.2352 42.5111 29.9947 42.5111Z" fill="#FECA00"/>
<path fill-rule="evenodd" clip-rule="evenodd" d="M28.7176 30.6273H10.8883C10.1736 30.6273 9.59375 31.195 9.59375 31.895V37.5132C9.59375 38.2126 10.1736 38.781 10.8883 38.781C11.603 38.781 12.1829 38.2128 12.1829 37.5132V33.1623H28.7187V37.5132C28.7187 38.2126 29.2984 38.781 30.0131 38.781C30.7274 38.781 31.3078 38.2128 31.3078 37.5132V33.1623H47.8435V37.5132C47.8435 38.2126 48.4233 38.781 49.1377 38.781C49.8498 38.781 50.4321 38.2128 50.4321 37.5132V31.895C50.4321 31.1951 49.8524 30.6273 49.1377 30.6273H31.3083V27.3919C31.3083 26.6924 30.728 26.124 30.0138 26.124C29.299 26.124 28.7192 26.6923 28.7192 27.3919L28.7176 30.6273Z" fill="#FECA00"/>
<path fill-rule="evenodd" clip-rule="evenodd" d="M16.2715 10.0458V19.5556C16.2715 19.9942 16.5045 20.4023 16.8853 20.633C25.638 25.9471 34.3911 25.9118 43.1446 20.6354C43.5249 20.4048 43.7579 19.9968 43.7579 19.5556V10.0457L48.053 8.55989C48.5706 8.37998 48.915 7.90066 48.915 7.36308C48.915 6.82839 48.5706 6.34906 48.053 6.16917L30.4484 0.0742273C30.1688 -0.0247424 29.8634 -0.0247424 29.5838 0.0742273L11.9792 6.16917C11.4615 6.34908 11.1172 6.8284 11.1172 7.36308C11.1172 7.9007 11.4615 8.38003 11.9792 8.55989L16.2715 10.0458ZM41.1695 10.9432L30.4485 14.6549C30.1689 14.751 29.8636 14.751 29.5839 14.6549L18.8609 10.9432V18.8406C26.2988 23.1176 33.7337 23.0875 41.1695 18.838V10.9432ZM30.0163 2.61213L43.7369 7.36308L30.0163 12.1169L16.2924 7.36308L30.0163 2.61213Z" fill="#FECA00"/>
</g>
<defs>
<clipPath id="clip0_631_282">
<rect width="60" height="71" fill="white"/>
</clipPath>
</defs>
</svg>
