<svg width="81" height="81" viewBox="0 0 81 81" fill="none" xmlns="http://www.w3.org/2000/svg">
<path d="M13.5 64.125V16.875C13.5 15.0848 14.2112 13.3679 15.477 12.102C16.7429 10.8362 18.4598 10.125 20.25 10.125H65.475C66.0121 10.125 66.5271 10.3383 66.9069 10.7181C67.2867 11.0979 67.5 11.6129 67.5 12.15V56.4098M20.25 57.375H67.5M20.25 70.875H67.5" stroke="#FFCB00" stroke-width="3" stroke-linecap="round"/>
<path d="M20.25 70.875C18.4598 70.875 16.7429 70.1638 15.477 68.898C14.2112 67.6321 13.5 65.9152 13.5 64.125C13.5 62.3348 14.2112 60.6179 15.477 59.352C16.7429 58.0862 18.4598 57.375 20.25 57.375" stroke="#FFCB00" stroke-width="3" stroke-linecap="round" stroke-linejoin="round"/>
<path d="M30.375 23.625H50.625" stroke="#FFCB00" stroke-width="3" stroke-linecap="round"/>
</svg>
