<svg width="101" height="102" viewBox="0 0 101 102" fill="none" xmlns="http://www.w3.org/2000/svg">
<g clip-path="url(#clip0_586_270)">
<g clip-path="url(#clip1_586_270)">
<path d="M0.5 57.0667C12.2158 54.696 12.984 48.1886 8.54259 38.3428C6.14181 33.0208 1.58035 23.8282 15.3848 27.9407C19.8022 29.2712 20.5465 25.6667 21.5788 22.5944C23.4754 16.9579 25.4921 11.3456 27.8929 4.52373C41.049 21.6268 48.9716 3.87057 60.2792 0C59.7991 13.934 68.2258 15.192 78.6692 13.9824C84.359 13.3293 89.8088 13.4744 85.1993 22.0139C79.6775 32.2225 91.0092 32.3193 94.8984 36.1414C99.94 41.1006 104.598 43.5681 94.5863 47.8499C86.6397 51.2609 93.626 56.7522 94.0821 61.1308C94.7304 67.493 102.341 76.1051 86.7118 73.9037C79.4134 72.8877 80.9739 82.0077 79.0053 86.5314C76.1964 92.9904 75.14 99.3527 67.1935 90.402C61.4796 83.9672 58.7187 92.8211 54.5414 94.2967C48.9476 96.2562 41.7452 107.868 40.6169 90.9342C40.3528 87.0394 36.5355 87.9829 33.8948 87.9587C27.9649 87.8861 22.035 87.9587 14.5445 87.9587C25.9722 69.4283 8.5906 67.0818 0.5 59.51V57.1151V57.0667Z" fill="#F2F8F7"/>
</g>
<g clip-path="url(#clip2_586_270)">
<path d="M22.0624 33.5C21.7756 33.4989 21.5005 33.611 21.2977 33.8104L22.0624 33.5ZM22.0624 33.5H22.0644H22.0624ZM22.0624 33.5H22.0644H22.0624ZM22.0644 33.5L57.9191 33.5004L57.921 33.5004C58.2083 33.4993 58.4833 33.6114 58.6855 33.8105C58.8879 34.0095 59.0017 34.2791 59.003 34.5593C59.003 34.559 59.003 34.5596 59.003 34.5593V40.7346V41.2346H59.503H77.5225C77.7229 41.2344 77.9192 41.289 78.0886 41.3921C78.258 41.4948 78.3955 41.642 78.4852 41.8165C78.4855 41.8169 78.4857 41.8174 78.486 41.8179L85.4945 55.6893C85.4947 55.6897 85.4949 55.6901 85.4952 55.6906C85.5689 55.8393 85.6066 56.0019 85.6055 56.1658V56.1692V70.0438C85.6055 70.0444 85.6055 70.0449 85.6055 70.0455C85.6039 70.3244 85.4917 70.5921 85.2914 70.7906C85.0907 70.9894 84.8182 71.1024 84.5326 71.1038C84.5323 71.1038 84.5329 71.1038 84.5326 71.1038H79.1001H78.6911L78.61 71.5047C77.9214 74.9104 74.8714 77.5 71.232 77.5C67.5918 77.5 64.5322 74.9097 63.8418 71.5044L63.7605 71.1038H63.3517H43.6898H43.281L43.1998 71.5044C42.5094 74.9096 39.4497 77.5 35.8095 77.5C32.1701 77.5 29.1201 74.9104 28.4314 71.5047L28.3504 71.1038H27.9413L22.0644 71.1037L22.0624 71.1038M22.0644 33.5L22.0624 71.1038L22.0644 33.5ZM22.0624 71.1038C21.7753 71.1049 21.5002 70.9928 21.2975 70.7935C21.0953 70.5944 20.9818 70.325 20.9805 70.0448V34.5593M22.0624 71.1038L20.9805 34.5593L22.0624 71.1038ZM33.9451 44.2315V36.6278V36.1278H33.4451H24.1391H23.6391V36.6278L23.6394 67.9759V68.4759H24.1394H27.9416C28.6819 64.846 31.934 62.092 35.8098 62.092C39.6857 62.092 42.9479 64.8458 43.6901 68.4759H55.8445H56.3445V67.9759V36.6281V36.1281H55.8445H46.5385H46.0385V36.6281V44.2317L33.9451 44.2315ZM33.9451 44.2315C33.9442 44.7765 34.2295 45.2834 34.6985 45.5681L33.9451 44.2315ZM20.9805 34.5593C20.9818 34.2791 21.0955 34.0096 21.2977 33.8104L20.9805 34.5593ZM23.6391 35.6278H23.1391V36.1278L23.1394 68.4759V68.9759H23.6394H27.9416H28.35L28.4316 68.5758C29.1248 65.1762 32.1742 62.592 35.8098 62.592C39.4461 62.592 42.5052 65.1767 43.2002 68.576L43.282 68.9759H43.6901H56.3445H56.8445V68.4759V36.1281V35.6281H56.3445H46.0385H45.5385V36.1281V44.2317V44.2347C45.5408 44.6059 45.3466 44.9534 45.0239 45.1486C44.7002 45.3443 44.2962 45.3577 43.9601 45.1837L43.9582 45.1827L40.22 43.2674L39.9924 43.1508L39.7646 43.2671L36.0155 45.1816C36.0153 45.1817 36.0157 45.1815 36.0155 45.1816C35.6799 45.3511 35.2788 45.3358 34.9583 45.1409C34.6379 44.9464 34.4445 44.6013 34.4451 44.2324V36.1278V35.6278H33.9451H23.6391ZM37.1039 35.6278H36.6039V36.1278L36.6042 41.6692L36.6043 42.4868L37.3321 42.1143L39.4974 41.0059C39.4972 41.0059 39.4975 41.0058 39.4974 41.0059C39.8075 40.8482 40.1759 40.8479 40.4856 41.0054C40.4856 41.0054 40.4857 41.0055 40.4856 41.0054L42.6515 42.114L43.3793 42.4865V41.6689V36.1278V35.6278H42.8793H37.1039ZM59.5031 43.362H59.0031V43.862V54.5987V55.0987H59.5031H81.9695H82.7825L82.4157 54.3732L76.9885 43.6364L76.8497 43.362H76.5422H59.5031ZM59.5031 57.227H59.0031V57.727L59.0029 68.4766V68.9766H59.5029L63.3522 68.9762H63.7603L63.842 68.5764C64.537 65.1773 67.596 62.5923 71.2324 62.5923C74.8681 62.5923 77.9174 65.1763 78.6106 68.5761L78.6922 68.9762H79.1005H82.9498H83.4498V68.4762V57.727V57.227H82.9498H59.5031ZM41.1915 70.0462C41.1915 67.0817 38.7962 64.7199 35.8098 64.7199C32.8229 64.7199 30.4311 67.0825 30.4311 70.0462C30.4311 73.0099 32.8228 75.3726 35.8098 75.3726C38.7963 75.3726 41.1915 73.0103 41.1915 70.0462ZM76.6114 70.0462C76.6114 67.0821 74.2196 64.7199 71.2327 64.7199C68.2483 64.7199 65.8389 67.0805 65.8389 70.0462C65.8389 73.012 68.2479 75.3726 71.2327 75.3726C74.2196 75.3726 76.6114 73.0099 76.6114 70.0462Z" fill="#2D3B42"/>
<path d="M22.0624 33.5C21.7756 33.4989 21.5005 33.611 21.2977 33.8104M22.0624 33.5L21.2977 33.8104M22.0624 33.5H22.0644M21.2977 33.8104C21.0955 34.0096 20.9818 34.2791 20.9805 34.5593M21.2977 33.8104L20.9805 34.5593M22.0644 33.5L57.9191 33.5004L57.921 33.5004C58.2083 33.4993 58.4833 33.6114 58.6855 33.8105C58.8879 34.0095 59.0017 34.2791 59.003 34.5593M22.0644 33.5L22.0624 71.1038M59.003 34.5593C59.003 34.5596 59.003 34.559 59.003 34.5593ZM59.003 34.5593V40.7346V41.2346H59.503H77.5225C77.7229 41.2344 77.9192 41.289 78.0886 41.3921C78.258 41.4948 78.3955 41.6421 78.4852 41.8165C78.4855 41.817 78.4857 41.8174 78.486 41.8179L85.4945 55.6893C85.4947 55.6897 85.4949 55.6901 85.4952 55.6906C85.5689 55.8393 85.6066 56.0019 85.6055 56.1658V56.1692V70.0438C85.6055 70.0444 85.6055 70.0449 85.6055 70.0455C85.6039 70.3244 85.4917 70.5921 85.2914 70.7906C85.0907 70.9894 84.8182 71.1024 84.5326 71.1038M84.5326 71.1038C84.5323 71.1038 84.5329 71.1038 84.5326 71.1038ZM84.5326 71.1038H79.1001H78.6911L78.61 71.5047C77.9214 74.9104 74.8714 77.5 71.232 77.5C67.5918 77.5 64.5322 74.9097 63.8418 71.5044L63.7605 71.1038H63.3517H43.6898H43.281L43.1998 71.5044C42.5094 74.9096 39.4497 77.5 35.8095 77.5C32.1701 77.5 29.1201 74.9104 28.4314 71.5047L28.3504 71.1038H27.9413L22.0644 71.1037L22.0624 71.1038M22.0624 71.1038C21.7753 71.1049 21.5002 70.9928 21.2975 70.7935C21.0953 70.5944 20.9818 70.325 20.9805 70.0448V34.5593M22.0624 71.1038L20.9805 34.5593M33.9451 44.2315V36.6278V36.1278H33.4451H24.1391H23.6391V36.6278L23.6394 67.9759V68.4759H24.1394H27.9416C28.6819 64.846 31.934 62.092 35.8098 62.092C39.6857 62.092 42.9479 64.8458 43.6901 68.4759H55.8445H56.3445V67.9759V36.6281V36.1281H55.8445H46.5385H46.0385V36.6281V44.2317L33.9451 44.2315ZM33.9451 44.2315C33.9442 44.7765 34.2295 45.2834 34.6985 45.5681L33.9451 44.2315ZM36.0155 45.1816L39.7646 43.2671L39.9924 43.1508L40.22 43.2674L43.9582 45.1827L43.9601 45.1837C44.2962 45.3577 44.7002 45.3443 45.0239 45.1486C45.3466 44.9534 45.5408 44.6059 45.5385 44.2347V44.2317V36.1281V35.6281H46.0385H56.3445H56.8445V36.1281V68.4759V68.9759H56.3445H43.6901H43.282L43.2002 68.576C42.5052 65.1767 39.4461 62.592 35.8098 62.592C32.1742 62.592 29.1248 65.1762 28.4316 68.5758L28.35 68.9759H27.9416H23.6394H23.1394V68.4759L23.1391 36.1278V35.6278H23.6391H33.9451H34.4451V36.1278V44.2324C34.4445 44.6013 34.6379 44.9464 34.9583 45.1409C35.2788 45.3358 35.6799 45.3511 36.0155 45.1816ZM36.0155 45.1816C36.0153 45.1817 36.0157 45.1815 36.0155 45.1816ZM39.4974 41.0059L37.3321 42.1143L36.6043 42.4868L36.6042 41.6692L36.6039 36.1278V35.6278H37.1039H42.8793H43.3793V36.1278V41.6689V42.4865L42.6515 42.114L40.4856 41.0054M39.4974 41.0059C39.4975 41.0058 39.4972 41.0059 39.4974 41.0059ZM39.4974 41.0059C39.8075 40.8482 40.1759 40.8479 40.4856 41.0054M40.4856 41.0054C40.4857 41.0055 40.4856 41.0054 40.4856 41.0054ZM59.5031 43.362H59.0031V43.862V54.5987V55.0987H59.5031H81.9695H82.7825L82.4157 54.3732L76.9885 43.6364L76.8497 43.362H76.5422H59.5031ZM59.5031 57.227H59.0031V57.727L59.0029 68.4766V68.9766H59.5029L63.3522 68.9762H63.7603L63.842 68.5764C64.537 65.1773 67.596 62.5923 71.2324 62.5923C74.8681 62.5923 77.9174 65.1763 78.6106 68.5761L78.6922 68.9762H79.1005H82.9498H83.4498V68.4762V57.727V57.227H82.9498H59.5031ZM41.1915 70.0462C41.1915 67.0817 38.7962 64.7199 35.8098 64.7199C32.8229 64.7199 30.4311 67.0825 30.4311 70.0462C30.4311 73.0099 32.8228 75.3726 35.8098 75.3726C38.7963 75.3726 41.1915 73.0103 41.1915 70.0462ZM76.6114 70.0462C76.6114 67.0821 74.2196 64.7199 71.2327 64.7199C68.2483 64.7199 65.8389 67.0805 65.8389 70.0462C65.8389 73.012 68.2479 75.3726 71.2327 75.3726C74.2196 75.3726 76.6114 73.0099 76.6114 70.0462Z" stroke="#F2F8F7"/>
</g>
</g>
<defs>
<clipPath id="clip0_586_270">
<rect width="100" height="102" fill="white" transform="translate(0.5)"/>
</clipPath>
<clipPath id="clip1_586_270">
<rect width="100" height="100" fill="white" transform="translate(0.5)"/>
</clipPath>
<clipPath id="clip2_586_270">
<rect width="66" height="45" fill="white" transform="translate(20.4805 33)"/>
</clipPath>
</defs>
</svg>
