<svg width="807" height="703" viewBox="0 0 807 703" fill="none" xmlns="http://www.w3.org/2000/svg">
<g clip-path="url(#clip0_586_164)">
<path d="M165.775 703C120.679 686.623 97.1039 652.966 82.838 608.712C59.6849 537.002 33.1479 466.316 8.24194 395.149C-12.7941 335.24 7.21497 282.737 59.3829 260.34C112.881 237.339 164.506 259.557 194.67 318.442C195.577 320.188 196.846 321.693 199.929 326.149C222.538 275.211 243.332 225.478 266.485 176.889C296.649 113.549 373.421 97.6534 425.166 142.57C439.13 154.732 447.532 170.326 454.786 186.824C475.098 233.004 495.53 279.125 517.896 329.761C550.055 239.567 579.918 154.371 610.808 69.5958C629.487 18.4177 677.786 -8.73684 726.569 2.52235C786.234 16.3103 821.295 72.4858 801.406 130.167C742.83 299.897 682.26 469.026 621.931 638.154C609.297 673.618 580.22 692.102 545.34 702.88H503.146C465.546 698.183 443.603 674.461 428.249 642.61C403.343 590.83 382.307 537.364 356.978 484.5C332.919 541.578 310.311 598.115 283.29 652.665C268.238 683.071 242.365 699.809 207.909 702.88H165.715L165.775 703Z" fill="#FECA00"/>
</g>
<defs>
<clipPath id="clip0_586_164">
<rect width="807" height="703" fill="white" transform="matrix(-1 0 0 1 807 0)"/>
</clipPath>
</defs>
</svg>
