<svg width="102" height="100" viewBox="0 0 102 100" fill="none" xmlns="http://www.w3.org/2000/svg">
<path d="M1 57.0667C12.7158 54.696 13.484 48.1886 9.04259 38.3428C6.64181 33.0208 2.08035 23.8282 15.8848 27.9407C20.3022 29.2712 21.0465 25.6667 22.0788 22.5944C23.9754 16.9579 25.9921 11.3456 28.3929 4.52373C41.549 21.6268 49.4716 3.87057 60.7792 0C60.2991 13.934 68.7258 15.192 79.1692 13.9824C84.859 13.3293 90.3088 13.4744 85.6993 22.0139C80.1775 32.2225 91.5092 32.3193 95.3984 36.1414C100.44 41.1006 105.098 43.5681 95.0863 47.8499C87.1397 51.2609 94.126 56.7522 94.5822 61.1308C95.2304 67.493 102.841 76.1051 87.2118 73.9037C79.9134 72.8877 81.4739 82.0077 79.5053 86.5314C76.6964 92.9904 75.64 99.3527 67.6935 90.402C61.9796 83.9672 59.2187 92.8211 55.0414 94.2967C49.4476 96.2562 42.2452 107.868 41.1169 90.9342C40.8528 87.0394 37.0355 87.9829 34.3948 87.9587C28.4649 87.8861 22.535 87.9587 15.0445 87.9587C26.4722 69.4283 9.09061 67.0818 1 59.51V57.1151V57.0667Z" fill="#F2F8F7"/>
<path d="M52.7337 32.7634C54.0714 33.7269 55.2481 34.8493 56.266 36.1869C56.5878 36.5611 57.1229 36.6677 57.5493 36.3479C57.9234 36.026 58.03 35.4909 57.7102 35.0646C54.2867 30.5687 49.0966 28 43.4245 28C33.5259 28 25.5 36.0259 25.5 45.9245C25.5 55.8232 33.5259 63.8491 43.4245 63.8491C46.7415 63.8491 50.0062 62.9399 52.8425 61.1738C53.271 60.9062 53.3776 60.3712 53.1644 59.9427C52.8968 59.5143 52.3618 59.4077 51.9333 59.6209C49.3646 61.2281 46.4218 62.0851 43.425 62.0851H42.9965C42.9965 60.0514 43.3706 57.8589 44.4408 57.0564C46.3678 55.5578 47.5968 53.6851 47.6511 52.0277C47.7055 51.0119 47.3836 50.1006 46.6354 49.3524C45.5109 48.2823 44.7626 48.0148 44.1732 47.8538C43.7991 47.7472 43.6382 47.6929 43.3163 47.3188C42.3005 46.0355 39.0358 46.4618 36.8412 46.9969C36.5736 46.5162 36.3061 45.7659 36.5736 45.2308C36.6802 45.0176 36.8412 44.6957 37.9656 44.6957C38.8748 44.6957 39.8384 44.3216 40.5343 43.6256C41.2303 42.9296 41.6045 41.9661 41.5501 40.9503C41.5501 40.6284 41.4958 40.2543 41.4435 39.8802C41.3892 39.5061 41.2826 38.9167 41.3369 38.8101C42.0329 37.6333 42.3527 35.5454 41.711 34.2621C41.3892 33.6204 40.8541 33.2463 40.2125 33.1376C39.9449 33.0832 39.6774 33.0832 39.3555 33.0832C38.1245 32.9766 36.3061 32.8701 35.2882 32.0675C37.696 30.6755 40.4257 29.8729 43.4207 29.8729C46.1503 29.8729 48.7169 30.5689 51.0181 31.7999C50.5896 34.4752 50.0546 35.491 49.6261 36.187C49.252 36.7765 48.9301 37.3638 49.0367 38.4882C49.091 39.4517 49.8393 39.9325 50.4287 40.3609C51.0181 40.735 51.2856 40.9503 51.2856 41.2701V41.592C51.2313 41.6463 51.179 41.6986 51.0724 41.6986C50.7506 41.9118 50.2155 42.1793 49.6804 42.8231C48.7169 43.9475 48.9322 45.8202 49.5195 47.1035C50.1612 48.4412 51.179 49.1894 52.3014 49.1894H52.3558C52.8365 49.1894 53.265 48.761 53.2127 48.2802C53.2127 47.7995 52.7842 47.371 52.3035 47.4233C51.8228 47.4233 51.3943 46.8882 51.1268 46.3532C50.6983 45.3897 50.6983 44.3738 51.0202 43.9997C51.3943 43.5713 51.6619 43.4103 51.9837 43.2515C52.6254 42.8774 53.1604 42.5033 53.0538 41.1656C52.9995 39.9346 52.038 39.2929 51.3943 38.8645C51.1811 38.7035 50.8049 38.4903 50.7526 38.3837C50.6983 37.7943 50.807 37.6355 51.1267 37.1004C51.6639 36.2937 52.253 35.2234 52.7337 32.7634ZM27.3183 45.925C27.3183 44.4264 27.5315 42.9278 27.96 41.5379C29.6718 45.4965 32.6146 49.0832 36.3078 48.8678C36.3078 49.081 36.2535 49.4029 36.2013 49.6704C35.9881 50.7949 35.6662 52.4523 37.1648 53.8965C37.4866 54.1641 37.6998 54.4316 37.9674 54.6448C38.8243 55.4474 38.8243 55.4473 38.7156 56.6241L38.609 57.2156C38.5547 58.6076 38.9309 60.265 39.3572 61.4961C32.4015 59.6777 27.3183 53.4159 27.3183 45.925ZM41.9799 48.4415C42.6216 49.2441 43.2632 49.4573 43.746 49.566C44.2267 49.6726 44.6552 49.8335 45.4055 50.5817C45.7797 50.9559 45.9406 51.33 45.8862 51.865C45.8319 52.9895 44.8161 54.4337 43.3175 55.6105C41.658 56.8938 41.2317 59.4625 41.1773 61.4961C40.8032 60.3717 40.2681 58.6599 40.3204 57.3223L40.3747 56.7328C40.4813 54.8058 40.3747 54.5926 39.0371 53.3093C38.8239 53.0961 38.5563 52.8808 38.2888 52.6133C37.5406 51.9173 37.6471 51.169 37.8603 50.0446C37.9669 49.6161 38.0213 49.0811 37.9669 48.546C39.8919 48.2263 41.6058 48.1196 41.9799 48.4415ZM39.198 34.8501C39.5199 34.8501 39.733 34.9044 40.0006 34.9044C40.0006 34.9044 40.1072 35.011 40.1615 35.2785C40.3747 36.0268 40.1615 37.2578 39.7874 37.8995C39.4133 38.5411 39.5199 39.398 39.6808 40.1463C39.7351 40.4139 39.7874 40.7357 39.7874 41.0033C39.7874 41.5383 39.6264 42.019 39.2523 42.3953C38.9305 42.7172 38.5041 42.876 38.1279 42.876C37.5384 42.876 35.8267 42.8216 35.0241 44.4268C34.5956 45.336 34.7022 46.2452 34.9698 46.9955C32.3488 46.2995 30.0998 42.7694 28.871 39.024C29.9954 36.6706 31.7072 34.5826 33.7931 33.0318C35.1307 34.5303 37.5928 34.6891 39.198 34.8501Z" fill="#2D3B42"/>
<path d="M71.9413 43.0909H71.7281L71.726 35.1716C71.726 33.2445 70.1752 31.748 68.3025 31.748H63.2738C61.3468 31.748 59.8503 33.2989 59.8503 35.1716V43.0909H59.6371C57.2293 43.0909 55.25 45.0703 55.25 47.478V63.5842C55.25 65.2439 56.2135 66.688 57.6034 67.4363C57.0684 68.0257 56.6942 68.8283 56.6942 69.6831C56.6942 71.5015 58.1928 73.0001 60.0112 73.0001C61.8296 73.0001 63.3282 71.5015 63.3282 69.6831C63.3282 69.0415 63.1672 68.4521 62.8475 67.9713H68.7331C68.4113 68.452 68.2524 69.0415 68.2524 69.6831C68.2524 71.5015 69.751 73.0001 71.5694 73.0001C73.3878 73.0001 74.8864 71.5015 74.8864 69.6831C74.8864 68.8262 74.5645 68.0236 73.9772 67.4363C75.3692 66.688 76.3306 65.2417 76.3306 63.5842L76.3285 47.478C76.3285 45.0703 74.3491 43.0909 71.9413 43.0909ZM61.6142 35.1716C61.6142 34.2624 62.3624 33.5121 63.2737 33.5121H68.3024C69.2116 33.5121 69.962 34.2603 69.962 35.1716V43.0909H61.6141L61.6142 35.1716ZM60.009 71.2338C59.1521 71.2338 58.5104 70.5378 58.5104 69.7352C58.5104 68.9326 59.2064 68.1844 60.009 68.1844C60.8116 68.1844 61.5076 68.8804 61.5076 69.683C61.5076 70.4855 60.8659 71.2338 60.009 71.2338ZM71.5672 71.2338C70.7103 71.2338 70.0686 70.5378 70.0686 69.7352C70.0686 68.9326 70.7103 68.1844 71.5672 68.1844C72.4241 68.1844 73.0658 68.8804 73.0658 69.683C73.0637 70.4855 72.422 71.2338 71.5672 71.2338ZM74.5101 63.6364C74.5101 65.0806 73.3333 66.2051 71.9414 66.2051H59.635C58.1907 66.2051 57.0663 65.0283 57.0663 63.6364V47.478C57.0663 46.0337 58.243 44.9093 59.635 44.9093H71.9414C73.3856 44.9093 74.5101 46.086 74.5101 47.478V63.6364Z" fill="#2D3B42"/>
<path d="M70.4449 48.4932H61.1358C60.6551 48.4932 60.2266 48.9216 60.2266 49.4024V54.2179C60.2266 54.6986 60.655 55.1271 61.1358 55.1271H70.4449C70.9256 55.1271 71.3541 54.6986 71.3541 54.2179V49.4024C71.3541 48.8673 70.9257 48.4932 70.4449 48.4932ZM69.5357 53.3087H62.0449V50.3115H69.5357V53.3087Z" fill="#2D3B42"/>
<path d="M70.3891 57.8047H61.1865C60.7058 57.8047 60.2773 58.2332 60.2773 58.7139C60.2773 59.1946 60.7058 59.6231 61.1865 59.6231H70.4435C70.9243 59.6231 71.3527 59.1946 71.3527 58.7139C71.3527 58.2311 70.9242 57.8047 70.3891 57.8047Z" fill="#2D3B42"/>
</svg>
