<svg width="24" height="24" viewBox="0 0 24 24" fill="none" xmlns="http://www.w3.org/2000/svg">
<path d="M20.4637 3.23047C20.6177 3.23047 20.7717 3.30847 20.8477 3.38547C20.8855 3.45641 20.9053 3.53557 20.9053 3.61597C20.9053 3.69636 20.8855 3.77552 20.8477 3.84647L14.7717 14.6165L18.6177 21.6925C18.6557 21.7635 18.6756 21.8429 18.6756 21.9235C18.6756 22.0041 18.6557 22.0834 18.6177 22.1545C18.5118 22.2499 18.3753 22.3045 18.2327 22.3085H15.4627C15.0787 22.3085 14.8487 22.0005 14.6947 21.7695L10.7717 14.6155C11.0017 14.3085 16.9257 3.77047 16.9257 3.77047C17.0787 3.46247 17.3097 3.23247 17.6947 3.23247L20.4637 3.23047ZM8.92471 7.00047C9.30971 7.00047 9.54071 7.30847 9.69471 7.53847L11.6177 10.8465C11.4637 11.0005 8.61771 16.0765 8.61771 16.0765C8.46371 16.3085 8.23271 16.6165 7.84771 16.6165H5.15671C5.0145 16.6123 4.8784 16.5577 4.77271 16.4625C4.73472 16.3914 4.71484 16.3121 4.71484 16.2315C4.71484 16.1509 4.73472 16.0715 4.77271 16.0005L7.61871 10.8465L5.77271 7.61647C5.73472 7.5454 5.71484 7.46606 5.71484 7.38547C5.71484 7.30488 5.73472 7.22554 5.77271 7.15447C5.87814 7.05945 6.01385 7.00489 6.15571 7.00047H8.92471Z" fill="#FFCC01"/>
</svg>
